<svg xmlns="http://www.w3.org/2000/svg" version="1.1" xmlns:xlink="http://www.w3.org/1999/xlink" width="512" height="512" x="0" y="0" viewBox="0 0 105 105" style="enable-background:new 0 0 512 512" xml:space="preserve" fill-rule="evenodd" class=""><g><path fill-rule="nonzero" d="M97.914 47.917H16.306l26.221-26.221a4.162 4.162 0 0 0 0-5.891 4.163 4.163 0 0 0-5.892 0L3.302 49.134c-.384.387-.688.85-.9 1.358a4.171 4.171 0 0 0 0 3.184c.212.508.516.97.9 1.358l33.333 33.329a4.152 4.152 0 0 0 2.946 1.221 4.156 4.156 0 0 0 2.946-1.221 4.163 4.163 0 0 0 0-5.892l-26.221-26.22h81.608c2.3 0 4.167-1.867 4.167-4.167s-1.867-4.167-4.167-4.167z" fill="#000000" opacity="1" data-original="#000000" class=""></path></g></svg>